<svg width="164" height="186" viewBox="0 0 164 186" fill="none" xmlns="http://www.w3.org/2000/svg">
<g id="&#60;Group&#62;">
<path id="&#60;Path&#62;" d="M133.243 165.265H32.7438C27.3414 165.265 22.9352 160.245 22.9352 154.038V33.2319C22.9352 27.0633 27.3414 22.0441 32.7438 22.0441H133.243C138.684 22.0441 143.052 27.0633 143.052 33.2319V154.038C143.052 160.245 138.684 165.265 133.243 165.265Z" fill="#641358"/>
<g id="&#60;Group&#62;_2">
<g id="&#60;Group&#62;_3">
<path id="&#60;Path&#62;_2" d="M158.225 48.3277H139.642C136.998 48.3277 134.853 46.1821 134.853 43.5001V42.7338C134.853 40.0901 136.998 37.9445 139.642 37.9445H158.225C160.907 37.9445 163.052 40.0901 163.052 42.7338V43.5001C163.052 46.1821 160.907 48.3277 158.225 48.3277Z" fill="#6F1D75"/>
</g>
<g id="&#60;Group&#62;_4">
<path id="&#60;Path&#62;_3" d="M158.225 68.5199H139.642C136.998 68.5199 134.853 66.3743 134.853 63.7306V62.9643C134.853 60.2822 136.998 58.1366 139.642 58.1366H158.225C160.907 58.1366 163.052 60.2822 163.052 62.9643V63.7306C163.052 66.3743 160.907 68.5199 158.225 68.5199Z" fill="#6F1D75"/>
</g>
<g id="&#60;Group&#62;_5">
<path id="&#60;Path&#62;_4" d="M158.225 88.7496H139.642C136.998 88.7496 134.853 86.604 134.853 83.922V83.1557C134.853 80.512 136.998 78.328 139.642 78.328H158.225C160.907 78.328 163.052 80.512 163.052 83.1557V83.922C163.052 86.604 160.907 88.7496 158.225 88.7496Z" fill="#6F1D75"/>
</g>
<g id="&#60;Group&#62;_6">
<path id="&#60;Path&#62;_5" d="M158.225 108.942H139.642C136.998 108.942 134.853 106.796 134.853 104.152V103.386C134.853 100.704 136.998 98.5585 139.642 98.5585H158.225C160.907 98.5585 163.052 100.704 163.052 103.386V104.152C163.052 106.796 160.907 108.942 158.225 108.942Z" fill="#6F1D75"/>
</g>
<g id="&#60;Group&#62;_7">
<path id="&#60;Path&#62;_6" d="M158.225 129.172H139.642C136.998 129.172 134.853 127.027 134.853 124.345V123.578C134.853 120.935 136.998 118.751 139.642 118.751H158.225C160.907 118.751 163.052 120.935 163.052 123.578V124.345C163.052 127.027 160.907 129.172 158.225 129.172Z" fill="#6F1D75"/>
</g>
<g id="&#60;Group&#62;_8">
<path id="&#60;Path&#62;_7" d="M158.225 149.364H139.642C136.998 149.364 134.853 147.218 134.853 144.574V143.77C134.853 141.126 136.998 138.98 139.642 138.98H158.225C160.907 138.98 163.052 141.126 163.052 143.77V144.574C163.052 147.218 160.907 149.364 158.225 149.364Z" fill="#6F1D75"/>
</g>
</g>
<g id="&#60;Group&#62;_9">
<g id="&#60;Group&#62;_10">
<path id="&#60;Path&#62;_8" d="M118.033 23.8448V5.26216C118.033 2.61844 120.217 0.434456 122.86 0.434456H123.627C126.309 0.434456 128.454 2.61844 128.454 5.26216V23.8448C128.454 26.4885 126.309 28.6342 123.627 28.6342H122.86C120.217 28.6342 118.033 26.4885 118.033 23.8448Z" fill="#6F1D75"/>
</g>
<g id="&#60;Group&#62;_11">
<path id="&#60;Path&#62;_9" d="M97.8403 23.8448V5.26216C97.8403 2.61844 99.986 0.434456 102.668 0.434456H103.434C106.078 0.434456 108.224 2.61844 108.224 5.26216V23.8448C108.224 26.4885 106.078 28.6342 103.434 28.6342H102.668C99.986 28.6342 97.8403 26.4885 97.8403 23.8448Z" fill="#6F1D75"/>
</g>
<g id="&#60;Group&#62;_12">
<path id="&#60;Path&#62;_10" d="M77.649 23.8448V5.26216C77.649 2.61844 79.7947 0.434456 82.4384 0.434456H83.2047C85.8867 0.434456 88.0323 2.61844 88.0323 5.26216V23.8448C88.0323 26.4885 85.8867 28.6342 83.2047 28.6342H82.4384C79.7947 28.6342 77.649 26.4885 77.649 23.8448Z" fill="#6F1D75"/>
</g>
<g id="&#60;Group&#62;_13">
<path id="&#60;Path&#62;_11" d="M57.4185 23.8448V5.26216C57.4185 2.61844 59.5641 0.434456 62.2461 0.434456H63.0124C65.6561 0.434456 67.8401 2.61844 67.8401 5.26216V23.8448C67.8401 26.4885 65.6561 28.6342 63.0124 28.6342H62.2461C59.5641 28.6342 57.4185 26.4885 57.4185 23.8448Z" fill="#6F1D75"/>
</g>
<g id="&#60;Group&#62;_14">
<path id="&#60;Path&#62;_12" d="M37.2263 23.8448V5.26217C37.2263 2.61845 39.3719 0.434471 42.0157 0.434471H42.782C45.464 0.434471 47.6096 2.61845 47.6096 5.26217V23.8448C47.6096 26.4886 45.464 28.6342 42.782 28.6342H42.0157C39.3719 28.6342 37.2263 26.4886 37.2263 23.8448Z" fill="#6F1D75"/>
</g>
</g>
<g id="&#60;Group&#62;_15">
<g id="&#60;Group&#62;_16">
<path id="&#60;Path&#62;_13" d="M116.883 180.322V161.74C116.883 159.096 119.067 156.912 121.711 156.912H122.477C125.159 156.912 127.305 159.096 127.305 161.74V180.322C127.305 182.966 125.159 185.112 122.477 185.112H121.711C119.067 185.112 116.883 182.966 116.883 180.322Z" fill="#6F1D75"/>
</g>
<g id="&#60;Group&#62;_17">
<path id="&#60;Path&#62;_14" d="M96.6908 180.322V161.74C96.6908 159.096 98.8364 156.912 101.48 156.912H102.285C104.928 156.912 107.074 159.096 107.074 161.74V180.322C107.074 182.966 104.928 185.112 102.285 185.112H101.48C98.8364 185.112 96.6908 182.966 96.6908 180.322Z" fill="#6F1D75"/>
</g>
<g id="&#60;Group&#62;_18">
<path id="&#60;Path&#62;_15" d="M76.4612 180.322V161.74C76.4612 159.096 78.6451 156.912 81.2889 156.912H82.0552C84.7372 156.912 86.8828 159.096 86.8828 161.74V180.322C86.8828 182.966 84.7372 185.112 82.0552 185.112H81.2889C78.6451 185.112 76.4612 182.966 76.4612 180.322Z" fill="#6F1D75"/>
</g>
<g id="&#60;Group&#62;_19">
<path id="&#60;Path&#62;_16" d="M56.269 180.322V161.74C56.269 159.096 58.4147 156.912 61.0967 156.912H61.863C64.5067 156.912 66.6523 159.096 66.6523 161.74V180.322C66.6523 182.966 64.5067 185.112 61.863 185.112H61.0967C58.4147 185.112 56.269 182.966 56.269 180.322Z" fill="#6F1D75"/>
</g>
<g id="&#60;Group&#62;_20">
<path id="&#60;Path&#62;_17" d="M36.0383 180.322V161.739C36.0383 159.096 38.2223 156.912 40.866 156.912H41.6323C44.3143 156.912 46.4599 159.096 46.4599 161.739V180.322C46.4599 182.966 44.3143 185.111 41.6323 185.111H40.866C38.2223 185.111 36.0383 182.966 36.0383 180.322Z" fill="#6F1D75"/>
</g>
</g>
<g id="&#60;Group&#62;_21">
<g id="&#60;Group&#62;_22">
<path id="&#60;Path&#62;_18" d="M24.2761 48.3277H5.69339C3.04967 48.3277 0.865723 46.1821 0.865723 43.5001V42.7338C0.865723 40.0901 3.04967 37.9445 5.69339 37.9445H24.2761C26.9198 37.9445 29.1037 40.0901 29.1037 42.7338V43.5001C29.1037 46.1821 26.9198 48.3277 24.2761 48.3277Z" fill="#6F1D75"/>
</g>
<g id="&#60;Group&#62;_23">
<path id="&#60;Path&#62;_19" d="M24.2761 68.5199H5.69339C3.04967 68.5199 0.865723 66.3743 0.865723 63.7306V62.9643C0.865723 60.2822 3.04967 58.1366 5.69339 58.1366H24.2761C26.9198 58.1366 29.1037 60.2822 29.1037 62.9643V63.7306C29.1037 66.3743 26.9198 68.5199 24.2761 68.5199Z" fill="#6F1D75"/>
</g>
<g id="&#60;Group&#62;_24">
<path id="&#60;Path&#62;_20" d="M24.2761 88.7496H5.69339C3.04967 88.7496 0.865723 86.604 0.865723 83.922V83.1557C0.865723 80.512 3.04967 78.328 5.69339 78.328H24.2761C26.9198 78.328 29.1037 80.512 29.1037 83.1557V83.922C29.1037 86.604 26.9198 88.7496 24.2761 88.7496Z" fill="#6F1D75"/>
</g>
<g id="&#60;Group&#62;_25">
<path id="&#60;Path&#62;_21" d="M24.2761 108.942H5.69339C3.04967 108.942 0.865723 106.796 0.865723 104.152V103.386C0.865723 100.704 3.04967 98.5585 5.69339 98.5585H24.2761C26.9198 98.5585 29.1037 100.704 29.1037 103.386V104.152C29.1037 106.796 26.9198 108.942 24.2761 108.942Z" fill="#6F1D75"/>
</g>
<g id="&#60;Group&#62;_26">
<path id="&#60;Path&#62;_22" d="M24.2761 129.172H5.69339C3.04967 129.172 0.865723 127.027 0.865723 124.345V123.578C0.865723 120.935 3.04967 118.751 5.69339 118.751H24.2761C26.9198 118.751 29.1037 120.935 29.1037 123.578V124.345C29.1037 127.027 26.9198 129.172 24.2761 129.172Z" fill="#6F1D75"/>
</g>
<g id="&#60;Group&#62;_27">
<path id="&#60;Path&#62;_23" d="M24.2761 149.364H5.69339C3.04967 149.364 0.865723 147.218 0.865723 144.574V143.77C0.865723 141.126 3.04967 138.98 5.69339 138.98H24.2761C26.9198 138.98 29.1037 141.126 29.1037 143.77V144.574C29.1037 147.218 26.9198 149.364 24.2761 149.364Z" fill="#6F1D75"/>
</g>
</g>
<g id="&#60;Group&#62;_28">
<g id="&#60;Group&#62;_29">
<path id="&#60;Compound Path&#62;" fill-rule="evenodd" clip-rule="evenodd" d="M80.522 99.6696H69.0659L66.8436 107.294H57.9546L70.9816 69.9374H78.6446L91.7482 107.294H82.7826L80.522 99.6696ZM70.8667 93.386H78.6446L74.7748 80.0908L70.8667 93.386Z" fill="#79206B"/>
<path id="&#60;Compound Path&#62;_2" d="M104.393 107.294H96.0017V69.9374H104.393V107.294Z" fill="#79206B"/>
</g>
</g>
</g>
</svg>
