<svg width="150" height="157" viewBox="0 0 150 157" fill="none" xmlns="http://www.w3.org/2000/svg">
<g id="&#60;Group&#62;">
<path id="&#60;Path&#62;" d="M131.929 82.9303C131.929 112.851 107.662 137.083 77.741 137.083C47.82 137.083 23.5531 112.851 23.5531 82.9303C23.5531 53.0093 47.82 28.7424 77.741 28.7424C107.662 28.7424 131.929 53.0093 131.929 82.9303Z" fill="#247075"/>
<path id="&#60;Compound Path&#62;" fill-rule="evenodd" clip-rule="evenodd" d="M140.99 93.8522C139.444 100.314 136.986 106.214 133.86 111.482L142.71 120.788C136.845 129.814 129.119 137.469 120.129 143.369L111.349 134.59C106.082 137.821 100.533 140.314 94.0711 141.929V154.221C89.2248 155.38 83.4302 156.012 77.741 156.012C72.1221 156.012 66.5734 155.415 61.6919 154.291V142.21C55.2301 140.665 49.4004 138.137 43.9922 134.906L35.4232 143.369C26.3978 137.469 18.6717 129.638 12.7718 120.612L21.1652 112.008C17.8991 106.565 15.3706 100.314 13.7551 93.8522H1.9202C0.796407 88.9707 0.199341 83.4571 0.199341 77.9084C0.199341 72.1841 0.831543 66.3193 2.02557 61.4729H13.7903C15.4408 55.0111 17.9694 49.5677 21.2354 44.1595L12.8772 36.0822C18.7771 27.127 26.5032 19.401 35.4584 13.5362L43.9922 21.9998C49.4004 18.7689 55.2301 16.3105 61.6919 14.7653V2.64944C66.5734 1.56076 72.1221 0.96373 77.741 0.96373C83.4302 0.96373 89.2248 1.56078 94.0711 2.75481V15.0463C100.533 16.6617 106.082 19.12 111.314 22.3158L120.129 13.5362C129.084 19.3658 136.74 27.0217 142.605 35.9418L133.79 44.6161C136.916 49.8838 139.374 55.0111 140.954 61.4729H153.457C154.651 66.3193 155.283 72.1841 155.283 77.9084C155.283 83.4571 154.686 88.9707 153.562 93.8522H140.99ZM126.486 78.4703C126.486 51.4641 104.572 29.5502 77.5304 29.5502C50.4891 29.5502 28.5751 51.4641 28.5751 78.4703C28.5751 105.512 50.4891 127.426 77.5304 127.426C104.572 127.426 126.486 105.512 126.486 78.4703Z" fill="#3F8D93"/>
<g id="&#60;Group&#62;_2">
<g id="&#60;Group&#62;_3">
<path id="&#60;Path&#62;_2" d="M88.4876 59.2955L75.1777 100.384C74.6158 102.175 72.6492 103.159 70.8582 102.597C69.032 102 68.0487 100.068 68.6457 98.2419L81.9205 57.1532C82.5175 55.3622 84.449 54.3788 86.2752 54.9407C88.0662 55.5377 89.0846 57.4693 88.4876 59.2955Z" fill="#3C8A8F"/>
<path id="&#60;Path&#62;_3" d="M109.383 74.8529L97.7585 63.2637C96.424 61.8941 94.2467 61.8941 92.8771 63.2637C91.5426 64.5982 91.5426 66.7755 92.8771 68.11L102.57 77.8028L92.8771 87.4604C91.5426 88.83 91.5426 91.0073 92.8771 92.3418C94.2467 93.6763 96.424 93.6763 97.7585 92.3418L109.383 80.7176C110.155 79.945 110.507 78.8212 110.331 77.8028C110.507 76.7492 110.155 75.6606 109.383 74.8529Z" fill="#3F8D93"/>
<path id="&#60;Path&#62;_4" d="M55.1603 77.5922L64.853 67.8995C66.1875 66.565 66.1875 64.3876 64.853 63.0531C63.4834 61.7186 61.3061 61.7186 59.9716 63.0531L48.3824 74.6422C47.5747 75.45 47.2586 76.5386 47.3991 77.5922C47.2586 78.6457 47.5747 79.7344 48.3824 80.5422L59.9716 92.1313C61.3061 93.5009 63.4834 93.5009 64.853 92.1313C66.1875 90.7968 66.1875 88.6194 64.853 87.2849L55.1603 77.5922Z" fill="#66B8BE"/>
</g>
</g>
</g>
</svg>
