<svg width="41" height="40" viewBox="0 0 41 40" fill="none" xmlns="http://www.w3.org/2000/svg">
<circle cx="21.0816" cy="20.4775" r="19.094" fill="black"/>
<path d="M20.6931 0.282959C9.75769 0.282959 0.889553 9.37502 0.889553 20.5909C0.885085 24.8476 2.19059 28.998 4.62158 32.4557C7.05256 35.9134 10.4861 38.5034 14.4369 39.8597C15.4272 40.0468 15.7886 39.4198 15.7886 38.8813C15.7886 38.3983 15.7713 37.1215 15.7614 35.4275C10.2528 36.6538 9.08923 32.7044 9.08923 32.7044C8.19054 30.3581 6.89077 29.7336 6.89077 29.7336C5.0909 28.4744 7.02446 28.4997 7.02446 28.4997C9.01249 28.6438 10.0573 30.5932 10.0573 30.5932C11.8249 33.6955 14.6943 32.8005 15.8233 32.2796C16.0015 30.9674 16.514 30.0724 17.081 29.5642C12.684 29.0509 8.05932 27.3088 8.05932 19.529C8.05932 17.3116 8.83176 15.4988 10.0993 14.0778C9.89385 13.5646 9.2155 11.4989 10.2924 8.705C10.2924 8.705 11.9562 8.15887 15.7391 10.7859C17.3551 10.3348 19.0227 10.1053 20.698 10.1032C22.3734 10.1066 24.0409 10.337 25.6569 10.7884C29.4374 8.1614 31.0986 8.70753 31.0986 8.70753C32.1781 11.5039 31.4997 13.5671 31.2967 14.0803C32.5668 15.5013 33.3318 17.3141 33.3318 19.5315C33.3318 27.3316 28.7021 29.0484 24.2903 29.5515C25.0009 30.1786 25.6347 31.4175 25.6347 33.3112C25.6347 36.0267 25.6099 38.2163 25.6099 38.8813C25.6099 39.4249 25.9664 40.057 26.9716 39.8572C30.9185 38.4977 34.3478 35.9066 36.7754 32.4498C39.203 28.993 40.5063 24.8449 40.5015 20.5909C40.5015 9.37502 31.6334 0.282959 20.6931 0.282959Z" fill="white"/>
</svg>
