<svg width="196" height="80" viewBox="0 0 196 80" fill="none" xmlns="http://www.w3.org/2000/svg">
<path d="M58.2004 53.0018L56.7499 69.2331H52.2949L54.4706 46.233H60.6869L66.5578 62.7406L72.256 46.233H78.4723L80.5789 69.2331H76.0894L74.5008 53.0709L68.4227 69.4749L64.313 69.8548L58.2004 53.0018ZM84.9478 46.233H89.9554V64.8818H98.2437V69.2331H84.9478V46.233ZM120.011 69.6821C116.327 69.6821 113.449 68.6921 111.377 66.7121C109.305 64.7321 108.269 61.9348 108.269 58.3202C108.269 55.8567 108.753 53.681 109.719 51.7931C110.709 49.9052 112.102 48.4547 113.898 47.4417C115.694 46.4057 117.766 45.8876 120.114 45.8876C122.025 45.8876 123.867 46.233 125.64 46.9237L124.708 51.3787C123.142 50.6649 121.622 50.3081 120.149 50.3081C118.054 50.3081 116.396 50.9988 115.176 52.3802C113.956 53.7385 113.346 55.5574 113.346 57.8367C113.346 60.162 113.99 61.9693 115.28 63.2586C116.569 64.5479 118.353 65.1926 120.632 65.1926C122.129 65.1926 123.579 64.9508 124.984 64.4673L125.744 68.7151C124.063 69.3598 122.152 69.6821 120.011 69.6821ZM140.09 69.6821C137.833 69.6821 135.842 69.1871 134.115 68.1971C132.388 67.2071 131.041 65.8142 130.075 64.0184C129.131 62.2226 128.659 60.162 128.659 57.8367C128.659 55.4883 129.131 53.4162 130.075 51.6204C131.018 49.8246 132.354 48.4317 134.081 47.4417C135.807 46.4517 137.81 45.9567 140.09 45.9567C142.346 45.9567 144.337 46.4517 146.064 47.4417C147.791 48.4087 149.126 49.7786 150.07 51.5513C151.014 53.3241 151.486 55.3732 151.486 57.6985C151.486 60.0699 151.014 62.165 150.07 63.9839C149.126 65.7797 147.791 67.1841 146.064 68.1971C144.337 69.1871 142.346 69.6821 140.09 69.6821ZM140.09 65.2962C141.977 65.2962 143.486 64.617 144.614 63.2586C145.765 61.9003 146.34 60.0929 146.34 57.8367C146.34 56.3632 146.076 55.0624 145.546 53.9342C145.04 52.7831 144.303 51.9082 143.336 51.3096C142.392 50.688 141.31 50.3772 140.09 50.3772C138.869 50.3772 137.776 50.688 136.809 51.3096C135.865 51.9082 135.128 52.7831 134.599 53.9342C134.092 55.0624 133.839 56.3632 133.839 57.8367C133.839 59.3101 134.092 60.611 134.599 61.7391C135.128 62.8672 135.865 63.7421 136.809 64.3637C137.753 64.9854 138.846 65.2962 140.09 65.2962ZM159.242 69.2677C157.607 69.2677 156.387 69.2562 155.581 69.2331V46.233C156.571 46.21 158.033 46.1984 159.967 46.1984C161.924 46.1984 163.386 46.21 164.353 46.233C166.609 46.256 168.566 46.7165 170.224 47.6144C171.905 48.4893 173.194 49.744 174.092 51.3787C175.013 53.0133 175.473 54.9242 175.473 57.1114C175.473 59.5058 174.944 61.6125 173.885 63.4313C172.849 65.2501 171.375 66.6661 169.464 67.6791C167.576 68.6921 165.378 69.2101 162.868 69.2331C162.062 69.2562 160.854 69.2677 159.242 69.2677ZM162.834 64.8818C165.159 64.8818 166.989 64.2026 168.325 62.8442C169.66 61.4858 170.328 59.621 170.328 57.2496C170.328 55.1084 169.752 53.4623 168.601 52.3111C167.473 51.1599 165.838 50.5844 163.697 50.5844H160.589V64.8818H162.834ZM179.581 46.233H193.568V50.5844H184.52V55.1775H192.014V59.3907H184.52V64.8818H193.568V69.2331H179.581V46.233Z" fill="url(#paint0_linear_1_4448)"/>
<path d="M45.6235 6.28967C45.6235 9.77082 42.8032 12.5911 39.322 12.5911C35.8527 12.5911 33.0324 9.77082 33.0324 6.28967C33.0324 2.82033 35.8527 0 39.322 0C42.8032 0 45.6235 2.82033 45.6235 6.28967Z" fill="url(#paint1_linear_1_4448)"/>
<path d="M45.0244 47.1081C45.0401 47.0609 45.0598 47.0137 45.0834 46.9665C45.1149 46.8878 45.1464 46.8092 45.1778 46.7305C45.2014 46.6676 45.225 46.6046 45.2486 46.5417C45.2722 46.4866 45.2919 46.4316 45.3076 46.3765C45.3312 46.2978 45.3548 46.2231 45.3784 46.1523C45.3942 46.0894 45.4099 46.0304 45.4256 45.9753C45.4413 45.9045 45.4571 45.8337 45.4728 45.7629C45.4886 45.6999 45.5003 45.6331 45.5082 45.5623C45.5239 45.4993 45.5358 45.4364 45.5436 45.3734C45.5594 45.2948 45.5712 45.2161 45.579 45.1374C45.5869 45.0824 45.5908 45.0273 45.5908 44.9722C45.5987 44.9014 45.6066 44.8306 45.6144 44.7598C45.6144 44.6733 45.6144 44.5868 45.6144 44.5002C45.6144 44.4766 45.6262 44.453 45.6262 44.4176C45.6262 44.4019 45.6223 44.3822 45.6144 44.3586C45.6144 44.2799 45.6144 44.2052 45.6144 44.1344C45.6066 44.0557 45.5987 43.9731 45.5908 43.8866C45.5908 43.8315 45.5869 43.7804 45.579 43.7332C45.5712 43.6545 45.5633 43.5798 45.5554 43.509C45.5397 43.4382 45.5279 43.3674 45.52 43.2965C45.5043 43.2336 45.4925 43.1707 45.4846 43.1078C45.4689 43.0448 45.4532 42.9819 45.4374 42.9189C45.4217 42.8481 45.402 42.7813 45.3784 42.7183C45.3627 42.6397 45.343 42.5649 45.3194 42.4941C45.3037 42.4391 45.284 42.3879 45.2604 42.3407C45.2368 42.2699 45.2132 42.2031 45.1896 42.1401C45.1581 42.0615 45.1267 41.9828 45.0952 41.9041C45.0795 41.8569 45.0598 41.8136 45.0362 41.7743C45.0047 41.7035 44.9693 41.6366 44.93 41.5737C44.8907 41.495 44.8513 41.4164 44.812 41.3377C44.8041 41.3141 44.7923 41.2944 44.7766 41.2787C44.7687 41.2629 44.7609 41.2472 44.753 41.2315C44.7137 41.1607 44.6704 41.0899 44.6232 41.0191C44.576 40.9483 44.5288 40.8814 44.4816 40.8184C44.458 40.7791 44.4344 40.7437 44.4108 40.7123C44.3636 40.6414 44.3124 40.5746 44.2574 40.5116C44.2102 40.4566 44.163 40.3976 44.1158 40.3346C44.0843 40.2953 44.0489 40.256 44.0096 40.2166C43.9624 40.1576 43.9151 40.1104 43.8561 40.0632C43.8089 40.0082 43.7578 39.9531 43.7028 39.898C43.6556 39.8587 43.6083 39.8154 43.5611 39.7682C43.5257 39.721 43.4667 39.6856 43.4195 39.6502C43.3645 39.5951 43.3055 39.544 43.2425 39.4968C43.1875 39.4496 43.1324 39.4063 43.0773 39.367C43.038 39.3355 42.9947 39.308 42.9475 39.2844C42.8846 39.2293 42.8177 39.1821 42.7469 39.1428C42.684 39.0956 42.6171 39.0523 42.5463 39.013C42.5384 39.0051 42.5266 38.9972 42.5109 38.9894C42.4873 38.9776 42.4637 38.9658 42.4401 38.954C42.3614 38.9068 42.2827 38.8635 42.2041 38.8242C42.1411 38.7927 42.0743 38.7612 42.0035 38.7298C41.9641 38.7062 41.9209 38.6865 41.8737 38.6708C41.795 38.6314 41.7163 38.596 41.6377 38.5646C41.5747 38.541 41.5118 38.5174 41.4489 38.4938C41.3938 38.478 41.3387 38.4583 41.2837 38.4347C41.205 38.4111 41.1302 38.3915 41.0594 38.3757C40.9965 38.36 40.9336 38.3443 40.8706 38.3286C40.8077 38.305 40.7408 38.2853 40.67 38.2696C40.6071 38.2617 40.5402 38.2499 40.4694 38.2341C40.4065 38.2263 40.3435 38.2145 40.2806 38.1987C40.2019 38.1909 40.1233 38.1791 40.0446 38.1633C39.9895 38.1633 39.9344 38.1594 39.8794 38.1515C39.8086 38.1437 39.7378 38.1397 39.667 38.1397C39.5804 38.1319 39.4939 38.128 39.4074 38.128C39.3838 38.128 39.3602 38.128 39.3248 38.128C39.3012 38.128 39.2815 38.128 39.2658 38.128C39.1871 38.128 39.1124 38.1319 39.0416 38.1397C38.955 38.1397 38.8724 38.1437 38.7937 38.1515C38.7387 38.1594 38.6836 38.1633 38.6285 38.1633C38.5577 38.1712 38.4869 38.183 38.4161 38.1987C38.3453 38.2066 38.2745 38.2184 38.2037 38.2341C38.1408 38.242 38.0739 38.2538 38.0031 38.2696C37.9402 38.2853 37.8772 38.301 37.8143 38.3167C37.7907 38.3167 37.7632 38.3207 37.7317 38.3286C32.8227 39.6148 30.2502 38.1043 28.9639 33.1953C28.5627 31.6377 27.5597 30.2334 26.061 29.3602C23.0637 27.6019 19.2049 28.6049 17.4466 31.6023C15.6884 34.6114 16.6914 38.4584 19.7005 40.2166C21.1992 41.1017 22.9103 41.2905 24.4679 40.8774C29.3887 39.5912 31.9494 41.1017 33.2357 46.0107C33.2475 46.0461 33.2593 46.0933 33.2711 46.1287C33.2947 46.2073 33.3183 46.2821 33.3419 46.3529C33.3576 46.4001 33.3734 46.4512 33.3891 46.5063C33.4127 46.5692 33.4363 46.6361 33.4599 46.7069C33.4914 46.7856 33.5268 46.8643 33.5661 46.9429C33.5818 46.9823 33.5976 47.0216 33.6133 47.0609C33.6448 47.1317 33.6802 47.2025 33.7195 47.2733C33.7589 47.352 33.8021 47.4307 33.8493 47.5094C33.8572 47.5251 33.8651 47.5448 33.8729 47.5684C33.8808 47.5841 33.8887 47.5959 33.8965 47.6037C33.9437 47.6745 33.987 47.7453 34.0263 47.8161C34.0735 47.8869 34.1207 47.9578 34.1679 48.0286C34.1915 48.0679 34.2191 48.1033 34.2505 48.1348C34.2977 48.1977 34.3449 48.2606 34.3921 48.3236C34.4393 48.3865 34.4865 48.4455 34.5337 48.5006C34.5731 48.5478 34.6085 48.5911 34.64 48.6304C34.6872 48.6776 34.7462 48.7366 34.7934 48.7838C34.8484 48.8389 34.8996 48.89 34.9468 48.9372C34.994 48.9844 35.0412 49.0316 35.0884 49.0788C35.1356 49.1142 35.1828 49.1496 35.23 49.1968C35.2851 49.244 35.3441 49.2912 35.407 49.3384C35.4621 49.3856 35.5211 49.4328 35.584 49.48C35.6233 49.5036 35.6627 49.5312 35.702 49.5626C35.7728 49.6098 35.8436 49.657 35.9144 49.7042C35.9774 49.7436 36.0403 49.7829 36.1032 49.8222C36.119 49.838 36.1347 49.8498 36.1504 49.8576C36.174 49.8694 36.1976 49.8812 36.2212 49.893C36.2999 49.9402 36.3786 49.9835 36.4572 50.0228C36.5202 50.0543 36.5831 50.0858 36.6461 50.1172C36.6933 50.1408 36.7404 50.1605 36.7877 50.1762C36.8663 50.2077 36.945 50.2392 37.0237 50.2707C37.0787 50.2943 37.1377 50.3179 37.2007 50.3415C37.2557 50.3651 37.3147 50.3847 37.3777 50.4005C37.4485 50.4241 37.5232 50.4477 37.6019 50.4713C37.6569 50.487 37.7159 50.5027 37.7789 50.5185C37.8497 50.5342 37.9205 50.5499 37.9913 50.5657C38.0542 50.5814 38.1172 50.5971 38.1801 50.6129C38.2431 50.6207 38.3099 50.6286 38.3807 50.6365C38.4594 50.6522 38.5381 50.664 38.6167 50.6719C38.6718 50.6797 38.7269 50.6837 38.7819 50.6837C38.8527 50.6915 38.9235 50.6994 38.9943 50.7073C39.0809 50.7073 39.1635 50.7073 39.2422 50.7073C39.2658 50.7191 39.3012 50.7191 39.3248 50.7191C39.3484 50.7191 39.372 50.7191 39.3956 50.7191C39.4664 50.7112 39.5411 50.7073 39.6198 50.7073C39.6984 50.6994 39.7771 50.6955 39.8558 50.6955C39.9109 50.6876 39.9659 50.6797 40.021 50.6719C40.0918 50.664 40.1626 50.6561 40.2334 50.6483C40.3042 50.6404 40.375 50.6286 40.4458 50.6129C40.5166 50.605 40.5835 50.5932 40.6464 50.5775C40.7093 50.5617 40.7723 50.546 40.8352 50.5303C40.8982 50.5145 40.965 50.4949 41.0358 50.4713C41.1066 50.4555 41.1814 50.4359 41.26 50.4123C41.3072 50.3965 41.3584 50.3769 41.4134 50.3533C41.4764 50.3297 41.5432 50.3061 41.614 50.2825C41.6927 50.251 41.7714 50.2195 41.8501 50.1881C41.8894 50.1723 41.9287 50.1527 41.9681 50.1291C42.0389 50.0976 42.1097 50.0622 42.1805 50.0228C42.2591 49.9835 42.3378 49.9442 42.4165 49.9048C42.4322 49.897 42.4519 49.8891 42.4755 49.8812C42.4834 49.8655 42.4952 49.8537 42.5109 49.8458C42.5817 49.8065 42.6525 49.7632 42.7233 49.716C42.7941 49.6688 42.8649 49.6216 42.9357 49.5744C42.9672 49.5508 43.0026 49.5272 43.0419 49.5036C43.1049 49.4564 43.1678 49.4053 43.2307 49.3502C43.2937 49.303 43.3527 49.2558 43.4077 49.2086C43.4471 49.1771 43.4903 49.1418 43.5375 49.1024C43.5847 49.0552 43.6437 49.008 43.6909 48.949C43.746 48.9018 43.7972 48.8507 43.8444 48.7956C43.8916 48.7484 43.9388 48.7012 43.986 48.654C44.0214 48.6186 44.0568 48.5596 44.104 48.5242C44.1512 48.4612 44.1984 48.3983 44.2456 48.3354C44.2928 48.2803 44.34 48.2252 44.3872 48.1702C44.4108 48.1308 44.4383 48.0915 44.4698 48.0522C44.517 47.9814 44.5642 47.9105 44.6114 47.8397C44.6507 47.7768 44.6901 47.7139 44.7294 47.651C44.7373 47.6352 44.7491 47.6195 44.7648 47.6037C44.7766 47.5801 44.7884 47.5565 44.8002 47.5329C44.8395 47.4543 44.8828 47.3756 44.93 47.2969C44.9615 47.234 44.9929 47.1711 45.0244 47.1081Z" fill="url(#paint2_linear_1_4448)"/>
<path d="M61.2945 31.7552C60.9641 31.1888 60.5629 30.6932 60.1027 30.2684C56.3029 26.7518 56.1731 23.7191 59.6897 19.9075C61.507 17.9368 61.9318 14.9395 60.5157 12.485C58.781 9.47587 54.9341 8.43743 51.9249 10.1839C48.904 11.9186 47.8774 15.7655 49.612 18.7747C49.9424 19.3411 50.3437 19.8485 50.8039 20.2615C54.6037 23.7781 54.7335 26.8108 51.2169 30.6224C49.3996 32.5931 48.9748 35.5904 50.3909 38.0449C52.1255 41.054 55.9725 42.0925 58.9816 40.3578C61.9908 38.6231 63.0292 34.7644 61.2945 31.7552Z" fill="url(#paint3_linear_1_4448)"/>
<path d="M10.7657 40.3582H10.7775C7.01318 36.5466 7.03676 33.4077 10.8483 29.6315H10.8365C11.226 29.2539 11.5682 28.8291 11.8632 28.3335C13.6215 25.3361 12.6066 21.4774 9.60927 19.7191C6.61194 17.9608 2.75318 18.9756 0.994904 21.973C-0.480159 24.4865 -0.0081273 27.6018 1.95076 29.5725H1.93894C5.7151 33.3959 5.69152 36.5348 1.86816 40.2992H1.87994C-0.114343 42.2698 -0.621771 45.397 0.841492 47.9341C2.57617 50.9432 6.42315 51.9816 9.44407 50.2352C12.4532 48.5005 13.4798 44.6535 11.7452 41.6444C11.4738 41.1606 11.1433 40.7358 10.7657 40.3582Z" fill="url(#paint4_linear_1_4448)"/>
<path d="M28.2672 50.8015C26.5325 47.7806 22.6737 46.7539 19.6646 48.4886C18.1659 49.35 17.1511 50.7543 16.7263 52.312C15.4164 57.2092 12.8321 58.6961 7.93488 57.3862C6.37722 56.9614 4.65435 57.1384 3.15568 58.0116C0.134753 59.7463 -0.891902 63.5932 0.842772 66.6024C2.57745 69.6233 6.42443 70.65 9.44535 68.9153C10.944 68.042 11.9589 66.6496 12.3719 65.0919C13.6935 60.1947 16.2778 58.7079 21.175 60.0177C22.7327 60.4425 24.4438 60.2655 25.9542 59.3923C28.9634 57.6576 30.0018 53.8106 28.2672 50.8015Z" fill="url(#paint5_linear_1_4448)"/>
<path d="M69.2129 19.9307C72.222 18.1842 76.069 19.2227 77.8155 22.2318C79.5501 25.2527 78.5117 29.0997 75.5026 30.8344C72.4817 32.569 68.6347 31.5424 66.9 28.5215C65.1653 25.5123 66.2038 21.6654 69.2129 19.9307Z" fill="url(#paint6_linear_1_4448)"/>
<defs>
<linearGradient id="paint0_linear_1_4448" x1="54.227" y1="48.2157" x2="201.091" y2="68.7848" gradientUnits="userSpaceOnUse">
<stop stop-color="#6788FE"/>
<stop offset="1" stop-color="#35D5F5"/>
</linearGradient>
<linearGradient id="paint1_linear_1_4448" x1="33.0288" y1="-0.000707725" x2="45.6202" y2="-0.000707725" gradientUnits="userSpaceOnUse">
<stop offset="0.011" stop-color="#29E8F2"/>
<stop offset="1" stop-color="#7079FF"/>
</linearGradient>
<linearGradient id="paint2_linear_1_4448" x1="16.581" y1="28.4912" x2="45.623" y2="28.4912" gradientUnits="userSpaceOnUse">
<stop offset="0.011" stop-color="#29E8F2"/>
<stop offset="1" stop-color="#7079FF"/>
</linearGradient>
<linearGradient id="paint3_linear_1_4448" x1="48.7684" y1="9.33698" x2="62.1366" y2="9.33698" gradientUnits="userSpaceOnUse">
<stop offset="0.011" stop-color="#29E8F2"/>
<stop offset="1" stop-color="#7079FF"/>
</linearGradient>
<linearGradient id="paint4_linear_1_4448" x1="-0.000118219" y1="18.8575" x2="12.7228" y2="18.8575" gradientUnits="userSpaceOnUse">
<stop offset="0.011" stop-color="#29E8F2"/>
<stop offset="1" stop-color="#7079FF"/>
</linearGradient>
<linearGradient id="paint5_linear_1_4448" x1="-0.000842956" y1="47.645" x2="29.1078" y2="47.645" gradientUnits="userSpaceOnUse">
<stop offset="0.011" stop-color="#296FF2"/>
<stop offset="1" stop-color="#BD70FF"/>
</linearGradient>
<linearGradient id="paint6_linear_1_4448" x1="66.0592" y1="19.0835" x2="78.6524" y2="19.0835" gradientUnits="userSpaceOnUse">
<stop offset="0.011" stop-color="#296FF2"/>
<stop offset="1" stop-color="#BD70FF"/>
</linearGradient>
</defs>
</svg>
