<svg width="26" height="26" viewBox="0 0 26 26" fill="none" xmlns="http://www.w3.org/2000/svg">
<g id="linkedin 1" clip-path="url(#clip0_1_4470)">
<g id="Group">
<path id="Vector" d="M24.5556 0H1.44444C0.6467 0 0 0.6467 0 1.44444V24.5556C0 25.3533 0.6467 26 1.44444 26H24.5556C25.3533 26 26 25.3533 26 24.5556V1.44444C26 0.6467 25.3533 0 24.5556 0Z" fill="#117EB8"/>
<path id="Vector_2" fill-rule="evenodd" clip-rule="evenodd" d="M4.74437 10.0562H8.21934V21.237H4.74437V10.0562ZM6.4824 4.49838C7.59354 4.49838 8.49632 5.40116 8.49632 6.5123C8.49632 7.62452 7.59354 8.52766 6.4824 8.52766C6.21462 8.53273 5.94852 8.48437 5.69966 8.3854C5.45079 8.28643 5.22415 8.13884 5.03298 7.95126C4.84182 7.76369 4.68997 7.53988 4.58631 7.29293C4.48264 7.04598 4.42925 6.78084 4.42925 6.51302C4.42925 6.2452 4.48264 5.98006 4.58631 5.73311C4.68997 5.48616 4.84182 5.26236 5.03298 5.07478C5.22415 4.8872 5.45079 4.73961 5.69966 4.64064C5.94852 4.54167 6.21462 4.49331 6.4824 4.49838ZM10.399 10.0559H13.7321V11.5837H13.7783C14.2423 10.7048 15.3758 9.77819 17.0662 9.77819C20.5849 9.77819 21.2349 12.094 21.2349 15.1046V21.237H17.7621V15.7997C17.7621 14.5033 17.7382 12.8354 15.9565 12.8354C14.1484 12.8354 13.8707 14.2477 13.8707 15.7062V21.237H10.3986V10.0562L10.399 10.0559Z" fill="white"/>
</g>
</g>
<defs>
<clipPath id="clip0_1_4470">
<rect width="26" height="26" fill="white"/>
</clipPath>
</defs>
</svg>
